solid OpenSCAD_Model
  facet normal 0 0 -1
    outer loop
      vertex 19.5 7.5 0
      vertex 21.2 11 0
      vertex 21.4 7.5 0
    endloop
  endfacet
  facet normal 0 0 -1
    outer loop
      vertex 19.5 7.5 0
      vertex 17.5 11 0
      vertex 21.2 11 0
    endloop
  endfacet
  facet normal 0 0 -1
    outer loop
      vertex 14.5 0 0
      vertex 19.5 7.5 0
      vertex 18 -2.5 0
    endloop
  endfacet
  facet normal 0 0 -1
    outer loop
      vertex 14.5 0 0
      vertex 18 -2.5 0
      vertex 17 -3.5 0
    endloop
  endfacet
  facet normal 0 0 -1
    outer loop
      vertex 19.5 7.5 0
      vertex 16.5 10 0
      vertex 17.5 11 0
    endloop
  endfacet
  facet normal -0 0 -1
    outer loop
      vertex 19.5 7.5 0
      vertex 14.5 0 0
      vertex 16.5 10 0
    endloop
  endfacet
  facet normal 0 0 -1
    outer loop
      vertex 1 -3.5 0
      vertex 14.5 0 0
      vertex 17 -3.5 0
    endloop
  endfacet
  facet normal 0 0 -1
    outer loop
      vertex 1 -3.5 0
      vertex 1 0 0
      vertex 14.5 0 0
    endloop
  endfacet
  facet normal 0 0 -1
    outer loop
      vertex 0 -2.5 0
      vertex 1 0 0
      vertex 1 -3.5 0
    endloop
  endfacet
  facet normal 0 0 -1
    outer loop
      vertex 1 0 0
      vertex 0 -2.5 0
      vertex 0 -1 0
    endloop
  endfacet
  facet normal 0 0 -1
    outer loop
      vertex 21.2 11 0
      vertex 22.4 8.5 0
      vertex 21.4 7.5 0
    endloop
  endfacet
  facet normal 0 0 -1
    outer loop
      vertex 22.4 8.5 0
      vertex 21.2 11 0
      vertex 22.4 12 0
    endloop
  endfacet
  facet normal -0 0 -1
    outer loop
      vertex 22.4 12 0
      vertex 21.2 11 0
      vertex 21.2 12 0
    endloop
  endfacet
  facet normal -0 0 1
    outer loop
      vertex 21.2 11 12.5
      vertex 22.4 8.5 12.5
      vertex 22.4 12 12.5
    endloop
  endfacet
  facet normal 0 0 1
    outer loop
      vertex 21.2 11 12.5
      vertex 22.4 12 12.5
      vertex 21.2 12 12.5
    endloop
  endfacet
  facet normal 0 0 1
    outer loop
      vertex 22.4 8.5 12.5
      vertex 21.2 11 12.5
      vertex 21.4 7.5 12.5
    endloop
  endfacet
  facet normal 0 0 1
    outer loop
      vertex 21.2 11 12.5
      vertex 19.5 7.5 12.5
      vertex 21.4 7.5 12.5
    endloop
  endfacet
  facet normal -0 0 1
    outer loop
      vertex 17.5 11 12.5
      vertex 19.5 7.5 12.5
      vertex 21.2 11 12.5
    endloop
  endfacet
  facet normal -0 0 1
    outer loop
      vertex 16.5 10 12.5
      vertex 19.5 7.5 12.5
      vertex 17.5 11 12.5
    endloop
  endfacet
  facet normal 0 0 1
    outer loop
      vertex 14.5 0 12.5
      vertex 19.5 7.5 12.5
      vertex 16.5 10 12.5
    endloop
  endfacet
  facet normal 0 0 1
    outer loop
      vertex 19.5 7.5 12.5
      vertex 14.5 0 12.5
      vertex 18 -2.5 12.5
    endloop
  endfacet
  facet normal 0 0 1
    outer loop
      vertex 18 -2.5 12.5
      vertex 14.5 0 12.5
      vertex 17 -3.5 12.5
    endloop
  endfacet
  facet normal 0 0 1
    outer loop
      vertex 1 -3.5 12.5
      vertex 14.5 0 12.5
      vertex 1 0 12.5
    endloop
  endfacet
  facet normal 0 0 1
    outer loop
      vertex 14.5 0 12.5
      vertex 1 -3.5 12.5
      vertex 17 -3.5 12.5
    endloop
  endfacet
  facet normal -0 0 1
    outer loop
      vertex 0 -1 12.5
      vertex 1 -3.5 12.5
      vertex 1 0 12.5
    endloop
  endfacet
  facet normal 0 0 1
    outer loop
      vertex 1 -3.5 12.5
      vertex 0 -1 12.5
      vertex 0 -2.5 12.5
    endloop
  endfacet
  facet normal 0.988936 -0.14834 0
    outer loop
      vertex 18 -2.5 12.5
      vertex 19.5 7.5 0
      vertex 19.5 7.5 12.5
    endloop
  endfacet
  facet normal 0.988936 -0.14834 0
    outer loop
      vertex 19.5 7.5 0
      vertex 18 -2.5 12.5
      vertex 18 -2.5 0
    endloop
  endfacet
  facet normal 0 -1 0
    outer loop
      vertex 19.5 7.5 0
      vertex 21.4 7.5 12.5
      vertex 19.5 7.5 12.5
    endloop
  endfacet
  facet normal 0 -1 -0
    outer loop
      vertex 21.4 7.5 12.5
      vertex 19.5 7.5 0
      vertex 21.4 7.5 0
    endloop
  endfacet
  facet normal 0.707107 -0.707107 0
    outer loop
      vertex 21.4 7.5 12.5
      vertex 22.4 8.5 0
      vertex 22.4 8.5 12.5
    endloop
  endfacet
  facet normal 0.707107 -0.707107 0
    outer loop
      vertex 22.4 8.5 0
      vertex 21.4 7.5 12.5
      vertex 21.4 7.5 0
    endloop
  endfacet
  facet normal 1 -0 0
    outer loop
      vertex 22.4 8.5 12.5
      vertex 22.4 12 0
      vertex 22.4 12 12.5
    endloop
  endfacet
  facet normal 1 0 0
    outer loop
      vertex 22.4 12 0
      vertex 22.4 8.5 12.5
      vertex 22.4 8.5 0
    endloop
  endfacet
  facet normal 0 1 -0
    outer loop
      vertex 22.4 12 0
      vertex 21.2 12 12.5
      vertex 22.4 12 12.5
    endloop
  endfacet
  facet normal 0 1 0
    outer loop
      vertex 21.2 12 12.5
      vertex 22.4 12 0
      vertex 21.2 12 0
    endloop
  endfacet
  facet normal -1 0 0
    outer loop
      vertex 21.2 11 0
      vertex 21.2 12 12.5
      vertex 21.2 12 0
    endloop
  endfacet
  facet normal -1 -0 0
    outer loop
      vertex 21.2 12 12.5
      vertex 21.2 11 0
      vertex 21.2 11 12.5
    endloop
  endfacet
  facet normal 0 1 -0
    outer loop
      vertex 21.2 11 0
      vertex 17.5 11 12.5
      vertex 21.2 11 12.5
    endloop
  endfacet
  facet normal 0 1 0
    outer loop
      vertex 17.5 11 12.5
      vertex 21.2 11 0
      vertex 17.5 11 0
    endloop
  endfacet
  facet normal -0.707107 0.707107 0
    outer loop
      vertex 16.5 10 0
      vertex 17.5 11 12.5
      vertex 17.5 11 0
    endloop
  endfacet
  facet normal -0.707107 0.707107 0
    outer loop
      vertex 17.5 11 12.5
      vertex 16.5 10 0
      vertex 16.5 10 12.5
    endloop
  endfacet
  facet normal -0.980581 0.196116 0
    outer loop
      vertex 14.5 0 0
      vertex 16.5 10 12.5
      vertex 16.5 10 0
    endloop
  endfacet
  facet normal -0.980581 0.196116 0
    outer loop
      vertex 16.5 10 12.5
      vertex 14.5 0 0
      vertex 14.5 0 12.5
    endloop
  endfacet
  facet normal 0 1 -0
    outer loop
      vertex 6.4398 0 8.86541
      vertex 1 0 12.5
      vertex 14.5 0 12.5
    endloop
  endfacet
  facet normal 0 1 0
    outer loop
      vertex 1 0 12.5
      vertex 6.4398 0 8.86541
      vertex 5.59 0 9
    endloop
  endfacet
  facet normal 0 1 0
    outer loop
      vertex 14.5 0 12.5
      vertex 7.20641 0 8.4748
      vertex 6.4398 0 8.86541
    endloop
  endfacet
  facet normal 0 1 0
    outer loop
      vertex 14.5 0 12.5
      vertex 7.8148 0 7.86641
      vertex 7.20641 0 8.4748
    endloop
  endfacet
  facet normal 0 1 0
    outer loop
      vertex 14.5 0 12.5
      vertex 8.20541 0 7.0998
      vertex 7.8148 0 7.86641
    endloop
  endfacet
  facet normal 0 1 0
    outer loop
      vertex 14.5 0 12.5
      vertex 8.34 0 6.25
      vertex 8.20541 0 7.0998
    endloop
  endfacet
  facet normal 0 1 -0
    outer loop
      vertex 14.5 0 0
      vertex 8.34 0 6.25
      vertex 14.5 0 12.5
    endloop
  endfacet
  facet normal 0 1 0
    outer loop
      vertex 8.34 0 6.25
      vertex 14.5 0 0
      vertex 8.20541 0 5.4002
    endloop
  endfacet
  facet normal 0 1 0
    outer loop
      vertex 1 0 0
      vertex 6.4398 0 3.63459
      vertex 14.5 0 0
    endloop
  endfacet
  facet normal 0 1 0
    outer loop
      vertex 7.20641 0 4.0252
      vertex 14.5 0 0
      vertex 6.4398 0 3.63459
    endloop
  endfacet
  facet normal 0 1 0
    outer loop
      vertex 7.8148 0 4.63359
      vertex 14.5 0 0
      vertex 7.20641 0 4.0252
    endloop
  endfacet
  facet normal 0 1 0
    outer loop
      vertex 8.20541 0 5.4002
      vertex 14.5 0 0
      vertex 7.8148 0 4.63359
    endloop
  endfacet
  facet normal 0 1 -0
    outer loop
      vertex 4.7402 0 8.86541
      vertex 1 0 12.5
      vertex 5.59 0 9
    endloop
  endfacet
  facet normal 0 1 -0
    outer loop
      vertex 3.97359 0 8.4748
      vertex 1 0 12.5
      vertex 4.7402 0 8.86541
    endloop
  endfacet
  facet normal 0 1 -0
    outer loop
      vertex 3.3652 0 7.86641
      vertex 1 0 12.5
      vertex 3.97359 0 8.4748
    endloop
  endfacet
  facet normal 0 1 -0
    outer loop
      vertex 2.97459 0 7.0998
      vertex 1 0 12.5
      vertex 3.3652 0 7.86641
    endloop
  endfacet
  facet normal 0 1 -0
    outer loop
      vertex 2.84 0 6.25
      vertex 1 0 12.5
      vertex 2.97459 0 7.0998
    endloop
  endfacet
  facet normal 0 1 0
    outer loop
      vertex 1 0 0
      vertex 2.84 0 6.25
      vertex 2.97459 0 5.4002
    endloop
  endfacet
  facet normal 0 1 0
    outer loop
      vertex 6.4398 0 3.63459
      vertex 1 0 0
      vertex 5.59 0 3.5
    endloop
  endfacet
  facet normal 0 1 0
    outer loop
      vertex 2.84 0 6.25
      vertex 1 0 0
      vertex 1 0 12.5
    endloop
  endfacet
  facet normal 0 1 0
    outer loop
      vertex 3.3652 0 4.63359
      vertex 1 0 0
      vertex 2.97459 0 5.4002
    endloop
  endfacet
  facet normal 0 1 0
    outer loop
      vertex 3.97359 0 4.0252
      vertex 1 0 0
      vertex 3.3652 0 4.63359
    endloop
  endfacet
  facet normal 0 1 0
    outer loop
      vertex 4.7402 0 3.63459
      vertex 1 0 0
      vertex 3.97359 0 4.0252
    endloop
  endfacet
  facet normal 0 1 0
    outer loop
      vertex 5.59 0 3.5
      vertex 1 0 0
      vertex 4.7402 0 3.63459
    endloop
  endfacet
  facet normal -0.707107 0.707107 0
    outer loop
      vertex 0 -1 0
      vertex 1 0 12.5
      vertex 1 0 0
    endloop
  endfacet
  facet normal -0.707107 0.707107 0
    outer loop
      vertex 1 0 12.5
      vertex 0 -1 0
      vertex 0 -1 12.5
    endloop
  endfacet
  facet normal -1 0 0
    outer loop
      vertex 0 -2.5 0
      vertex 0 -1 12.5
      vertex 0 -1 0
    endloop
  endfacet
  facet normal -1 -0 0
    outer loop
      vertex 0 -1 12.5
      vertex 0 -2.5 0
      vertex 0 -2.5 12.5
    endloop
  endfacet
  facet normal -0.707107 -0.707107 0
    outer loop
      vertex 1 -3.5 0
      vertex 0 -2.5 12.5
      vertex 0 -2.5 0
    endloop
  endfacet
  facet normal -0.707107 -0.707107 0
    outer loop
      vertex 0 -2.5 12.5
      vertex 1 -3.5 0
      vertex 1 -3.5 12.5
    endloop
  endfacet
  facet normal 0 -1 0
    outer loop
      vertex 6.4398 -3.5 8.86541
      vertex 1 -3.5 12.5
      vertex 5.59 -3.5 9
    endloop
  endfacet
  facet normal 0 -1 0
    outer loop
      vertex 1 -3.5 12.5
      vertex 4.7402 -3.5 8.86541
      vertex 5.59 -3.5 9
    endloop
  endfacet
  facet normal 0 -1 0
    outer loop
      vertex 1 -3.5 12.5
      vertex 3.97359 -3.5 8.4748
      vertex 4.7402 -3.5 8.86541
    endloop
  endfacet
  facet normal 0 -1 0
    outer loop
      vertex 1 -3.5 12.5
      vertex 3.3652 -3.5 7.86641
      vertex 3.97359 -3.5 8.4748
    endloop
  endfacet
  facet normal 0 -1 0
    outer loop
      vertex 1 -3.5 12.5
      vertex 2.97459 -3.5 7.0998
      vertex 3.3652 -3.5 7.86641
    endloop
  endfacet
  facet normal 0 -1 0
    outer loop
      vertex 1 -3.5 12.5
      vertex 2.84 -3.5 6.25
      vertex 2.97459 -3.5 7.0998
    endloop
  endfacet
  facet normal 0 -1 0
    outer loop
      vertex 1 -3.5 0
      vertex 2.84 -3.5 6.25
      vertex 1 -3.5 12.5
    endloop
  endfacet
  facet normal 0 -1 -0
    outer loop
      vertex 4.7402 -3.5 3.63459
      vertex 1 -3.5 0
      vertex 5.59 -3.5 3.5
    endloop
  endfacet
  facet normal 0 -1 -0
    outer loop
      vertex 3.97359 -3.5 4.0252
      vertex 1 -3.5 0
      vertex 4.7402 -3.5 3.63459
    endloop
  endfacet
  facet normal 0 -1 -0
    outer loop
      vertex 3.3652 -3.5 4.63359
      vertex 1 -3.5 0
      vertex 3.97359 -3.5 4.0252
    endloop
  endfacet
  facet normal 0 -1 -0
    outer loop
      vertex 2.97459 -3.5 5.4002
      vertex 1 -3.5 0
      vertex 3.3652 -3.5 4.63359
    endloop
  endfacet
  facet normal 0 -1 -0
    outer loop
      vertex 2.84 -3.5 6.25
      vertex 1 -3.5 0
      vertex 2.97459 -3.5 5.4002
    endloop
  endfacet
  facet normal 0 -1 0
    outer loop
      vertex 1 -3.5 12.5
      vertex 6.4398 -3.5 8.86541
      vertex 17 -3.5 12.5
    endloop
  endfacet
  facet normal 0 -1 0
    outer loop
      vertex 7.20641 -3.5 8.4748
      vertex 17 -3.5 12.5
      vertex 6.4398 -3.5 8.86541
    endloop
  endfacet
  facet normal 0 -1 0
    outer loop
      vertex 7.8148 -3.5 7.86641
      vertex 17 -3.5 12.5
      vertex 7.20641 -3.5 8.4748
    endloop
  endfacet
  facet normal 0 -1 0
    outer loop
      vertex 8.20541 -3.5 7.0998
      vertex 17 -3.5 12.5
      vertex 7.8148 -3.5 7.86641
    endloop
  endfacet
  facet normal 0 -1 0
    outer loop
      vertex 8.34 -3.5 6.25
      vertex 17 -3.5 12.5
      vertex 8.20541 -3.5 7.0998
    endloop
  endfacet
  facet normal 0 -1 0
    outer loop
      vertex 17 -3.5 0
      vertex 8.34 -3.5 6.25
      vertex 8.20541 -3.5 5.4002
    endloop
  endfacet
  facet normal 0 -1 0
    outer loop
      vertex 17 -3.5 0
      vertex 8.20541 -3.5 5.4002
      vertex 7.8148 -3.5 4.63359
    endloop
  endfacet
  facet normal 0 -1 0
    outer loop
      vertex 17 -3.5 0
      vertex 7.8148 -3.5 4.63359
      vertex 7.20641 -3.5 4.0252
    endloop
  endfacet
  facet normal 0 -1 0
    outer loop
      vertex 1 -3.5 0
      vertex 6.4398 -3.5 3.63459
      vertex 5.59 -3.5 3.5
    endloop
  endfacet
  facet normal 0 -1 0
    outer loop
      vertex 17 -3.5 0
      vertex 6.4398 -3.5 3.63459
      vertex 1 -3.5 0
    endloop
  endfacet
  facet normal 0 -1 0
    outer loop
      vertex 8.34 -3.5 6.25
      vertex 17 -3.5 0
      vertex 17 -3.5 12.5
    endloop
  endfacet
  facet normal 0 -1 0
    outer loop
      vertex 6.4398 -3.5 3.63459
      vertex 17 -3.5 0
      vertex 7.20641 -3.5 4.0252
    endloop
  endfacet
  facet normal 0.707107 -0.707107 0
    outer loop
      vertex 17 -3.5 12.5
      vertex 18 -2.5 0
      vertex 18 -2.5 12.5
    endloop
  endfacet
  facet normal 0.707107 -0.707107 0
    outer loop
      vertex 18 -2.5 0
      vertex 17 -3.5 12.5
      vertex 17 -3.5 0
    endloop
  endfacet
  facet normal -0.891005 0 0.453993
    outer loop
      vertex 7.8148 -3.5 4.63359
      vertex 8.20541 0 5.4002
      vertex 7.8148 0 4.63359
    endloop
  endfacet
  facet normal -0.891005 0 0.453993
    outer loop
      vertex 8.20541 0 5.4002
      vertex 7.8148 -3.5 4.63359
      vertex 8.20541 -3.5 5.4002
    endloop
  endfacet
  facet normal -0.891005 0 -0.453993
    outer loop
      vertex 8.20541 -3.5 7.0998
      vertex 7.8148 0 7.86641
      vertex 8.20541 0 7.0998
    endloop
  endfacet
  facet normal -0.891005 -0 -0.453993
    outer loop
      vertex 7.8148 0 7.86641
      vertex 8.20541 -3.5 7.0998
      vertex 7.8148 -3.5 7.86641
    endloop
  endfacet
  facet normal -0.987689 0 -0.156429
    outer loop
      vertex 8.34 -3.5 6.25
      vertex 8.20541 0 7.0998
      vertex 8.34 0 6.25
    endloop
  endfacet
  facet normal -0.987689 -0 -0.156429
    outer loop
      vertex 8.20541 0 7.0998
      vertex 8.34 -3.5 6.25
      vertex 8.20541 -3.5 7.0998
    endloop
  endfacet
  facet normal -0.453993 0 0.891005
    outer loop
      vertex 6.4398 0 3.63459
      vertex 7.20641 -3.5 4.0252
      vertex 7.20641 0 4.0252
    endloop
  endfacet
  facet normal -0.453993 0 0.891005
    outer loop
      vertex 7.20641 -3.5 4.0252
      vertex 6.4398 0 3.63459
      vertex 6.4398 -3.5 3.63459
    endloop
  endfacet
  facet normal 0.987689 -0 0.156429
    outer loop
      vertex 2.84 -3.5 6.25
      vertex 2.97459 0 5.4002
      vertex 2.84 0 6.25
    endloop
  endfacet
  facet normal 0.987689 0 0.156429
    outer loop
      vertex 2.97459 0 5.4002
      vertex 2.84 -3.5 6.25
      vertex 2.97459 -3.5 5.4002
    endloop
  endfacet
  facet normal -0.707107 0 -0.707107
    outer loop
      vertex 7.20641 -3.5 8.4748
      vertex 7.8148 0 7.86641
      vertex 7.8148 -3.5 7.86641
    endloop
  endfacet
  facet normal -0.707107 0 -0.707107
    outer loop
      vertex 7.8148 0 7.86641
      vertex 7.20641 -3.5 8.4748
      vertex 7.20641 0 8.4748
    endloop
  endfacet
  facet normal 0.453993 0 -0.891005
    outer loop
      vertex 3.97359 -3.5 8.4748
      vertex 4.7402 0 8.86541
      vertex 4.7402 -3.5 8.86541
    endloop
  endfacet
  facet normal 0.453993 0 -0.891005
    outer loop
      vertex 4.7402 0 8.86541
      vertex 3.97359 -3.5 8.4748
      vertex 3.97359 0 8.4748
    endloop
  endfacet
  facet normal -0.156429 0 0.987689
    outer loop
      vertex 5.59 0 3.5
      vertex 6.4398 -3.5 3.63459
      vertex 6.4398 0 3.63459
    endloop
  endfacet
  facet normal -0.156429 0 0.987689
    outer loop
      vertex 6.4398 -3.5 3.63459
      vertex 5.59 0 3.5
      vertex 5.59 -3.5 3.5
    endloop
  endfacet
  facet normal 0.156429 0 -0.987689
    outer loop
      vertex 4.7402 -3.5 8.86541
      vertex 5.59 0 9
      vertex 5.59 -3.5 9
    endloop
  endfacet
  facet normal 0.156429 0 -0.987689
    outer loop
      vertex 5.59 0 9
      vertex 4.7402 -3.5 8.86541
      vertex 4.7402 0 8.86541
    endloop
  endfacet
  facet normal -0.707107 0 0.707107
    outer loop
      vertex 7.20641 0 4.0252
      vertex 7.8148 -3.5 4.63359
      vertex 7.8148 0 4.63359
    endloop
  endfacet
  facet normal -0.707107 0 0.707107
    outer loop
      vertex 7.8148 -3.5 4.63359
      vertex 7.20641 0 4.0252
      vertex 7.20641 -3.5 4.0252
    endloop
  endfacet
  facet normal 0.156429 0 0.987689
    outer loop
      vertex 4.7402 0 3.63459
      vertex 5.59 -3.5 3.5
      vertex 5.59 0 3.5
    endloop
  endfacet
  facet normal 0.156429 0 0.987689
    outer loop
      vertex 5.59 -3.5 3.5
      vertex 4.7402 0 3.63459
      vertex 4.7402 -3.5 3.63459
    endloop
  endfacet
  facet normal 0.891005 0 -0.453993
    outer loop
      vertex 3.3652 -3.5 7.86641
      vertex 2.97459 0 7.0998
      vertex 3.3652 0 7.86641
    endloop
  endfacet
  facet normal 0.891005 0 -0.453993
    outer loop
      vertex 2.97459 0 7.0998
      vertex 3.3652 -3.5 7.86641
      vertex 2.97459 -3.5 7.0998
    endloop
  endfacet
  facet normal -0.987689 0 0.156429
    outer loop
      vertex 8.20541 -3.5 5.4002
      vertex 8.34 0 6.25
      vertex 8.20541 0 5.4002
    endloop
  endfacet
  facet normal -0.987689 0 0.156429
    outer loop
      vertex 8.34 0 6.25
      vertex 8.20541 -3.5 5.4002
      vertex 8.34 -3.5 6.25
    endloop
  endfacet
  facet normal 0.453993 0 0.891005
    outer loop
      vertex 3.97359 0 4.0252
      vertex 4.7402 -3.5 3.63459
      vertex 4.7402 0 3.63459
    endloop
  endfacet
  facet normal 0.453993 0 0.891005
    outer loop
      vertex 4.7402 -3.5 3.63459
      vertex 3.97359 0 4.0252
      vertex 3.97359 -3.5 4.0252
    endloop
  endfacet
  facet normal -0.156429 0 -0.987689
    outer loop
      vertex 5.59 -3.5 9
      vertex 6.4398 0 8.86541
      vertex 6.4398 -3.5 8.86541
    endloop
  endfacet
  facet normal -0.156429 0 -0.987689
    outer loop
      vertex 6.4398 0 8.86541
      vertex 5.59 -3.5 9
      vertex 5.59 0 9
    endloop
  endfacet
  facet normal -0.453993 0 -0.891005
    outer loop
      vertex 6.4398 -3.5 8.86541
      vertex 7.20641 0 8.4748
      vertex 7.20641 -3.5 8.4748
    endloop
  endfacet
  facet normal -0.453993 0 -0.891005
    outer loop
      vertex 7.20641 0 8.4748
      vertex 6.4398 -3.5 8.86541
      vertex 6.4398 0 8.86541
    endloop
  endfacet
  facet normal 0.707107 0 -0.707107
    outer loop
      vertex 3.97359 -3.5 8.4748
      vertex 3.3652 0 7.86641
      vertex 3.97359 0 8.4748
    endloop
  endfacet
  facet normal 0.707107 0 -0.707107
    outer loop
      vertex 3.3652 0 7.86641
      vertex 3.97359 -3.5 8.4748
      vertex 3.3652 -3.5 7.86641
    endloop
  endfacet
  facet normal 0.891005 -0 0.453993
    outer loop
      vertex 2.97459 -3.5 5.4002
      vertex 3.3652 0 4.63359
      vertex 2.97459 0 5.4002
    endloop
  endfacet
  facet normal 0.891005 0 0.453993
    outer loop
      vertex 3.3652 0 4.63359
      vertex 2.97459 -3.5 5.4002
      vertex 3.3652 -3.5 4.63359
    endloop
  endfacet
  facet normal 0.987689 0 -0.156429
    outer loop
      vertex 2.97459 -3.5 7.0998
      vertex 2.84 0 6.25
      vertex 2.97459 0 7.0998
    endloop
  endfacet
  facet normal 0.987689 0 -0.156429
    outer loop
      vertex 2.84 0 6.25
      vertex 2.97459 -3.5 7.0998
      vertex 2.84 -3.5 6.25
    endloop
  endfacet
  facet normal 0.707107 -0 0.707107
    outer loop
      vertex 3.3652 -3.5 4.63359
      vertex 3.97359 0 4.0252
      vertex 3.3652 0 4.63359
    endloop
  endfacet
  facet normal 0.707107 0 0.707107
    outer loop
      vertex 3.97359 0 4.0252
      vertex 3.3652 -3.5 4.63359
      vertex 3.97359 -3.5 4.0252
    endloop
  endfacet
endsolid OpenSCAD_Model
