solid OpenSCAD_Model
  facet normal 0.707107 0 -0.707107
    outer loop
      vertex 106.5 -194 -59.5
      vertex 101.5 194 -64.5
      vertex 106.5 194 -59.5
    endloop
  endfacet
  facet normal 0.707107 0 -0.707107
    outer loop
      vertex 101.5 194 -64.5
      vertex 106.5 -194 -59.5
      vertex 101.5 -194 -64.5
    endloop
  endfacet
  facet normal 0.707107 -0 0.707107
    outer loop
      vertex 101.5 -194 64.5
      vertex 106.5 194 59.5
      vertex 101.5 194 64.5
    endloop
  endfacet
  facet normal 0.707107 0 0.707107
    outer loop
      vertex 106.5 194 59.5
      vertex 101.5 -194 64.5
      vertex 106.5 -194 59.5
    endloop
  endfacet
  facet normal -0.707107 0.707107 0
    outer loop
      vertex -106.5 194 -59.5
      vertex -101.5 199 59.5
      vertex -101.5 199 -59.5
    endloop
  endfacet
  facet normal -0.707107 0.707107 0
    outer loop
      vertex -101.5 199 59.5
      vertex -106.5 194 -59.5
      vertex -106.5 194 59.5
    endloop
  endfacet
  facet normal 0.707107 0.707107 0
    outer loop
      vertex 106.5 194 59.5
      vertex 101.5 199 -59.5
      vertex 101.5 199 59.5
    endloop
  endfacet
  facet normal 0.707107 0.707107 0
    outer loop
      vertex 101.5 199 -59.5
      vertex 106.5 194 59.5
      vertex 106.5 194 -59.5
    endloop
  endfacet
  facet normal 0 0.707107 0.707107
    outer loop
      vertex 101.5 199 59.5
      vertex -101.5 194 64.5
      vertex 101.5 194 64.5
    endloop
  endfacet
  facet normal 0 0.707107 0.707107
    outer loop
      vertex -101.5 194 64.5
      vertex 101.5 199 59.5
      vertex -101.5 199 59.5
    endloop
  endfacet
  facet normal -1 0 0
    outer loop
      vertex -106.5 -194 -59.5
      vertex -106.5 194 59.5
      vertex -106.5 194 -59.5
    endloop
  endfacet
  facet normal -1 -0 0
    outer loop
      vertex -106.5 194 59.5
      vertex -106.5 -194 -59.5
      vertex -106.5 -194 59.5
    endloop
  endfacet
  facet normal 0 -0.707107 0.707107
    outer loop
      vertex -101.5 -199 59.5
      vertex 101.5 -194 64.5
      vertex -101.5 -194 64.5
    endloop
  endfacet
  facet normal 0 -0.707107 0.707107
    outer loop
      vertex 101.5 -194 64.5
      vertex -101.5 -199 59.5
      vertex 101.5 -199 59.5
    endloop
  endfacet
  facet normal -0.707107 -0.707107 0
    outer loop
      vertex -101.5 -199 -59.5
      vertex -106.5 -194 59.5
      vertex -106.5 -194 -59.5
    endloop
  endfacet
  facet normal -0.707107 -0.707107 0
    outer loop
      vertex -106.5 -194 59.5
      vertex -101.5 -199 -59.5
      vertex -101.5 -199 59.5
    endloop
  endfacet
  facet normal 0 -1 0
    outer loop
      vertex -7.5 -199 44.5
      vertex 12.5 -199 49.5
      vertex -12.5 -199 49.5
    endloop
  endfacet
  facet normal 0 -1 0
    outer loop
      vertex -7.5 -199 44.5
      vertex 7.5 -199 44.5
      vertex 12.5 -199 49.5
    endloop
  endfacet
  facet normal 0 -1 0
    outer loop
      vertex -7.5 -199 -44.5
      vertex 7.5 -199 44.5
      vertex -7.5 -199 44.5
    endloop
  endfacet
  facet normal 0 -1 0
    outer loop
      vertex -7.5 -199 -44.5
      vertex 7.5 -199 -44.5
      vertex 7.5 -199 44.5
    endloop
  endfacet
  facet normal 0 -1 0
    outer loop
      vertex -12.5 -199 -49.5
      vertex 7.5 -199 -44.5
      vertex -7.5 -199 -44.5
    endloop
  endfacet
  facet normal 0 -1 -0
    outer loop
      vertex 7.5 -199 -44.5
      vertex -12.5 -199 -49.5
      vertex 12.5 -199 -49.5
    endloop
  endfacet
  facet normal 0 -1 0
    outer loop
      vertex -12.5 -199 49.5
      vertex -101.5 -199 59.5
      vertex -86.5 -199 49.5
    endloop
  endfacet
  facet normal 0 -1 0
    outer loop
      vertex -101.5 -199 59.5
      vertex -91.5 -199 44.5
      vertex -86.5 -199 49.5
    endloop
  endfacet
  facet normal 0 -1 0
    outer loop
      vertex -101.5 -199 59.5
      vertex -91.5 -199 -44.5
      vertex -91.5 -199 44.5
    endloop
  endfacet
  facet normal 0 -1 0
    outer loop
      vertex -101.5 -199 -59.5
      vertex -12.5 -199 -49.5
      vertex -86.5 -199 -49.5
    endloop
  endfacet
  facet normal 0 -1 -0
    outer loop
      vertex -12.5 -199 -49.5
      vertex -101.5 -199 -59.5
      vertex 12.5 -199 -49.5
    endloop
  endfacet
  facet normal 0 -1 0
    outer loop
      vertex 101.5 -199 -59.5
      vertex 12.5 -199 -49.5
      vertex -101.5 -199 -59.5
    endloop
  endfacet
  facet normal 0 -1 -0
    outer loop
      vertex -91.5 -199 -44.5
      vertex -101.5 -199 -59.5
      vertex -86.5 -199 -49.5
    endloop
  endfacet
  facet normal 0 -1 0
    outer loop
      vertex -101.5 -199 -59.5
      vertex -91.5 -199 -44.5
      vertex -101.5 -199 59.5
    endloop
  endfacet
  facet normal 0 -1 0
    outer loop
      vertex -101.5 -199 59.5
      vertex -12.5 -199 49.5
      vertex 101.5 -199 59.5
    endloop
  endfacet
  facet normal 0 -1 0
    outer loop
      vertex 12.5 -199 49.5
      vertex 101.5 -199 59.5
      vertex -12.5 -199 49.5
    endloop
  endfacet
  facet normal 0 -1 0
    outer loop
      vertex 86.5 -199 49.5
      vertex 101.5 -199 59.5
      vertex 12.5 -199 49.5
    endloop
  endfacet
  facet normal 0 -1 0
    outer loop
      vertex 91.5 -199 44.5
      vertex 101.5 -199 59.5
      vertex 86.5 -199 49.5
    endloop
  endfacet
  facet normal 0 -1 0
    outer loop
      vertex 91.5 -199 -44.5
      vertex 101.5 -199 59.5
      vertex 91.5 -199 44.5
    endloop
  endfacet
  facet normal 0 -1 0
    outer loop
      vertex 91.5 -199 -44.5
      vertex 101.5 -199 -59.5
      vertex 101.5 -199 59.5
    endloop
  endfacet
  facet normal 0 -1 0
    outer loop
      vertex 86.5 -199 -49.5
      vertex 101.5 -199 -59.5
      vertex 91.5 -199 -44.5
    endloop
  endfacet
  facet normal 0 -1 0
    outer loop
      vertex 12.5 -199 -49.5
      vertex 101.5 -199 -59.5
      vertex 86.5 -199 -49.5
    endloop
  endfacet
  facet normal 0.57735 0.57735 -0.57735
    outer loop
      vertex 106.5 194 -59.5
      vertex 101.5 194 -64.5
      vertex 101.5 199 -59.5
    endloop
  endfacet
  facet normal 1 -0 0
    outer loop
      vertex 106.5 -194 59.5
      vertex 106.5 194 -59.5
      vertex 106.5 194 59.5
    endloop
  endfacet
  facet normal 1 0 0
    outer loop
      vertex 106.5 194 -59.5
      vertex 106.5 -194 59.5
      vertex 106.5 -194 -59.5
    endloop
  endfacet
  facet normal -0.707107 0 0.707107
    outer loop
      vertex -106.5 -194 59.5
      vertex -101.5 194 64.5
      vertex -106.5 194 59.5
    endloop
  endfacet
  facet normal -0.707107 0 0.707107
    outer loop
      vertex -101.5 194 64.5
      vertex -106.5 -194 59.5
      vertex -101.5 -194 64.5
    endloop
  endfacet
  facet normal -0.57735 -0.57735 0.57735
    outer loop
      vertex -101.5 -194 64.5
      vertex -106.5 -194 59.5
      vertex -101.5 -199 59.5
    endloop
  endfacet
  facet normal 0 -0.707107 -0.707107
    outer loop
      vertex -101.5 -194 -64.5
      vertex 101.5 -199 -59.5
      vertex -101.5 -199 -59.5
    endloop
  endfacet
  facet normal 0 -0.707107 -0.707107
    outer loop
      vertex 101.5 -199 -59.5
      vertex -101.5 -194 -64.5
      vertex 101.5 -194 -64.5
    endloop
  endfacet
  facet normal -0.57735 0.57735 0.57735
    outer loop
      vertex -101.5 199 59.5
      vertex -106.5 194 59.5
      vertex -101.5 194 64.5
    endloop
  endfacet
  facet normal -0 0 1
    outer loop
      vertex -101.5 194 64.5
      vertex 101.5 -194 64.5
      vertex 101.5 194 64.5
    endloop
  endfacet
  facet normal 0 0 1
    outer loop
      vertex 101.5 -194 64.5
      vertex -101.5 194 64.5
      vertex -101.5 -194 64.5
    endloop
  endfacet
  facet normal 0.57735 -0.57735 -0.57735
    outer loop
      vertex 106.5 -194 -59.5
      vertex 101.5 -199 -59.5
      vertex 101.5 -194 -64.5
    endloop
  endfacet
  facet normal -0.57735 -0.57735 -0.57735
    outer loop
      vertex -101.5 -199 -59.5
      vertex -106.5 -194 -59.5
      vertex -101.5 -194 -64.5
    endloop
  endfacet
  facet normal 0.57735 -0.57735 0.57735
    outer loop
      vertex 101.5 -194 64.5
      vertex 101.5 -199 59.5
      vertex 106.5 -194 59.5
    endloop
  endfacet
  facet normal 0.707107 -0.707107 0
    outer loop
      vertex 101.5 -199 59.5
      vertex 106.5 -194 -59.5
      vertex 106.5 -194 59.5
    endloop
  endfacet
  facet normal 0.707107 -0.707107 0
    outer loop
      vertex 106.5 -194 -59.5
      vertex 101.5 -199 59.5
      vertex 101.5 -199 -59.5
    endloop
  endfacet
  facet normal 0.57735 0.57735 0.57735
    outer loop
      vertex 101.5 199 59.5
      vertex 101.5 194 64.5
      vertex 106.5 194 59.5
    endloop
  endfacet
  facet normal -0.57735 0.57735 -0.57735
    outer loop
      vertex -101.5 194 -64.5
      vertex -106.5 194 -59.5
      vertex -101.5 199 -59.5
    endloop
  endfacet
  facet normal 0 0.707107 -0.707107
    outer loop
      vertex 101.5 194 -64.5
      vertex -101.5 199 -59.5
      vertex 101.5 199 -59.5
    endloop
  endfacet
  facet normal 0 0.707107 -0.707107
    outer loop
      vertex -101.5 199 -59.5
      vertex 101.5 194 -64.5
      vertex -101.5 194 -64.5
    endloop
  endfacet
  facet normal 0 1 -0
    outer loop
      vertex 7.5 199 44.5
      vertex -12.5 199 49.5
      vertex 12.5 199 49.5
    endloop
  endfacet
  facet normal 0 1 0
    outer loop
      vertex 7.5 199 44.5
      vertex -7.5 199 44.5
      vertex -12.5 199 49.5
    endloop
  endfacet
  facet normal 0 1 -0
    outer loop
      vertex 7.5 199 -44.5
      vertex -7.5 199 44.5
      vertex 7.5 199 44.5
    endloop
  endfacet
  facet normal 0 1 0
    outer loop
      vertex 7.5 199 -44.5
      vertex -7.5 199 -44.5
      vertex -7.5 199 44.5
    endloop
  endfacet
  facet normal 0 1 0
    outer loop
      vertex 12.5 199 -49.5
      vertex -7.5 199 -44.5
      vertex 7.5 199 -44.5
    endloop
  endfacet
  facet normal 0 1 0
    outer loop
      vertex -7.5 199 -44.5
      vertex 12.5 199 -49.5
      vertex -12.5 199 -49.5
    endloop
  endfacet
  facet normal 0 1 0
    outer loop
      vertex 12.5 199 49.5
      vertex 101.5 199 59.5
      vertex 86.5 199 49.5
    endloop
  endfacet
  facet normal 0 1 0
    outer loop
      vertex 101.5 199 59.5
      vertex 91.5 199 44.5
      vertex 86.5 199 49.5
    endloop
  endfacet
  facet normal 0 1 0
    outer loop
      vertex 101.5 199 59.5
      vertex 91.5 199 -44.5
      vertex 91.5 199 44.5
    endloop
  endfacet
  facet normal 0 1 0
    outer loop
      vertex 101.5 199 -59.5
      vertex 12.5 199 -49.5
      vertex 86.5 199 -49.5
    endloop
  endfacet
  facet normal 0 1 0
    outer loop
      vertex 12.5 199 -49.5
      vertex 101.5 199 -59.5
      vertex -12.5 199 -49.5
    endloop
  endfacet
  facet normal 0 1 0
    outer loop
      vertex -101.5 199 -59.5
      vertex -12.5 199 -49.5
      vertex 101.5 199 -59.5
    endloop
  endfacet
  facet normal 0 1 0
    outer loop
      vertex 91.5 199 -44.5
      vertex 101.5 199 -59.5
      vertex 86.5 199 -49.5
    endloop
  endfacet
  facet normal 0 1 -0
    outer loop
      vertex 101.5 199 -59.5
      vertex 91.5 199 -44.5
      vertex 101.5 199 59.5
    endloop
  endfacet
  facet normal 0 1 0
    outer loop
      vertex 101.5 199 59.5
      vertex 12.5 199 49.5
      vertex -101.5 199 59.5
    endloop
  endfacet
  facet normal 0 1 -0
    outer loop
      vertex -12.5 199 49.5
      vertex -101.5 199 59.5
      vertex 12.5 199 49.5
    endloop
  endfacet
  facet normal 0 1 -0
    outer loop
      vertex -86.5 199 49.5
      vertex -101.5 199 59.5
      vertex -12.5 199 49.5
    endloop
  endfacet
  facet normal 0 1 -0
    outer loop
      vertex -91.5 199 44.5
      vertex -101.5 199 59.5
      vertex -86.5 199 49.5
    endloop
  endfacet
  facet normal 0 1 -0
    outer loop
      vertex -91.5 199 -44.5
      vertex -101.5 199 59.5
      vertex -91.5 199 44.5
    endloop
  endfacet
  facet normal 0 1 0
    outer loop
      vertex -91.5 199 -44.5
      vertex -101.5 199 -59.5
      vertex -101.5 199 59.5
    endloop
  endfacet
  facet normal 0 1 0
    outer loop
      vertex -86.5 199 -49.5
      vertex -101.5 199 -59.5
      vertex -91.5 199 -44.5
    endloop
  endfacet
  facet normal 0 1 0
    outer loop
      vertex -12.5 199 -49.5
      vertex -101.5 199 -59.5
      vertex -86.5 199 -49.5
    endloop
  endfacet
  facet normal 0 0 -1
    outer loop
      vertex -101.5 -194 -64.5
      vertex 101.5 194 -64.5
      vertex 101.5 -194 -64.5
    endloop
  endfacet
  facet normal -0 0 -1
    outer loop
      vertex 101.5 194 -64.5
      vertex -101.5 -194 -64.5
      vertex -101.5 194 -64.5
    endloop
  endfacet
  facet normal -0.707107 0 -0.707107
    outer loop
      vertex -101.5 -194 -64.5
      vertex -106.5 194 -59.5
      vertex -101.5 194 -64.5
    endloop
  endfacet
  facet normal -0.707107 -0 -0.707107
    outer loop
      vertex -106.5 194 -59.5
      vertex -101.5 -194 -64.5
      vertex -106.5 -194 -59.5
    endloop
  endfacet
  facet normal -1 0 0
    outer loop
      vertex -7.5 -199 -44.5
      vertex -7.5 199 44.5
      vertex -7.5 199 -44.5
    endloop
  endfacet
  facet normal -1 -0 0
    outer loop
      vertex -7.5 199 44.5
      vertex -7.5 -199 -44.5
      vertex -7.5 -199 44.5
    endloop
  endfacet
  facet normal -0.707107 0 -0.707107
    outer loop
      vertex -7.5 -199 44.5
      vertex -12.5 199 49.5
      vertex -7.5 199 44.5
    endloop
  endfacet
  facet normal -0.707107 -0 -0.707107
    outer loop
      vertex -12.5 199 49.5
      vertex -7.5 -199 44.5
      vertex -12.5 -199 49.5
    endloop
  endfacet
  facet normal 1 -0 0
    outer loop
      vertex -91.5 -199 44.5
      vertex -91.5 199 -44.5
      vertex -91.5 199 44.5
    endloop
  endfacet
  facet normal 1 0 0
    outer loop
      vertex -91.5 199 -44.5
      vertex -91.5 -199 44.5
      vertex -91.5 -199 -44.5
    endloop
  endfacet
  facet normal 0.707107 0 -0.707107
    outer loop
      vertex -86.5 -199 49.5
      vertex -91.5 199 44.5
      vertex -86.5 199 49.5
    endloop
  endfacet
  facet normal 0.707107 0 -0.707107
    outer loop
      vertex -91.5 199 44.5
      vertex -86.5 -199 49.5
      vertex -91.5 -199 44.5
    endloop
  endfacet
  facet normal 0.707107 -0 0.707107
    outer loop
      vertex -91.5 -199 -44.5
      vertex -86.5 199 -49.5
      vertex -91.5 199 -44.5
    endloop
  endfacet
  facet normal 0.707107 0 0.707107
    outer loop
      vertex -86.5 199 -49.5
      vertex -91.5 -199 -44.5
      vertex -86.5 -199 -49.5
    endloop
  endfacet
  facet normal 0 0 -1
    outer loop
      vertex -86.5 -199 49.5
      vertex -12.5 199 49.5
      vertex -12.5 -199 49.5
    endloop
  endfacet
  facet normal -0 0 -1
    outer loop
      vertex -12.5 199 49.5
      vertex -86.5 -199 49.5
      vertex -86.5 199 49.5
    endloop
  endfacet
  facet normal -0 0 1
    outer loop
      vertex -86.5 199 -49.5
      vertex -12.5 -199 -49.5
      vertex -12.5 199 -49.5
    endloop
  endfacet
  facet normal 0 0 1
    outer loop
      vertex -12.5 -199 -49.5
      vertex -86.5 199 -49.5
      vertex -86.5 -199 -49.5
    endloop
  endfacet
  facet normal -0.707107 0 0.707107
    outer loop
      vertex -12.5 -199 -49.5
      vertex -7.5 199 -44.5
      vertex -12.5 199 -49.5
    endloop
  endfacet
  facet normal -0.707107 0 0.707107
    outer loop
      vertex -7.5 199 -44.5
      vertex -12.5 -199 -49.5
      vertex -7.5 -199 -44.5
    endloop
  endfacet
  facet normal 0 0 -1
    outer loop
      vertex 12.5 -199 49.5
      vertex 86.5 199 49.5
      vertex 86.5 -199 49.5
    endloop
  endfacet
  facet normal -0 0 -1
    outer loop
      vertex 86.5 199 49.5
      vertex 12.5 -199 49.5
      vertex 12.5 199 49.5
    endloop
  endfacet
  facet normal -1 0 0
    outer loop
      vertex 91.5 -199 -44.5
      vertex 91.5 199 44.5
      vertex 91.5 199 -44.5
    endloop
  endfacet
  facet normal -1 -0 0
    outer loop
      vertex 91.5 199 44.5
      vertex 91.5 -199 -44.5
      vertex 91.5 -199 44.5
    endloop
  endfacet
  facet normal -0.707107 0 0.707107
    outer loop
      vertex 86.5 -199 -49.5
      vertex 91.5 199 -44.5
      vertex 86.5 199 -49.5
    endloop
  endfacet
  facet normal -0.707107 0 0.707107
    outer loop
      vertex 91.5 199 -44.5
      vertex 86.5 -199 -49.5
      vertex 91.5 -199 -44.5
    endloop
  endfacet
  facet normal -0.707107 0 -0.707107
    outer loop
      vertex 91.5 -199 44.5
      vertex 86.5 199 49.5
      vertex 91.5 199 44.5
    endloop
  endfacet
  facet normal -0.707107 -0 -0.707107
    outer loop
      vertex 86.5 199 49.5
      vertex 91.5 -199 44.5
      vertex 86.5 -199 49.5
    endloop
  endfacet
  facet normal 1 -0 0
    outer loop
      vertex 7.5 -199 44.5
      vertex 7.5 199 -44.5
      vertex 7.5 199 44.5
    endloop
  endfacet
  facet normal 1 0 0
    outer loop
      vertex 7.5 199 -44.5
      vertex 7.5 -199 44.5
      vertex 7.5 -199 -44.5
    endloop
  endfacet
  facet normal 0.707107 0 -0.707107
    outer loop
      vertex 12.5 -199 49.5
      vertex 7.5 199 44.5
      vertex 12.5 199 49.5
    endloop
  endfacet
  facet normal 0.707107 0 -0.707107
    outer loop
      vertex 7.5 199 44.5
      vertex 12.5 -199 49.5
      vertex 7.5 -199 44.5
    endloop
  endfacet
  facet normal 0.707107 -0 0.707107
    outer loop
      vertex 7.5 -199 -44.5
      vertex 12.5 199 -49.5
      vertex 7.5 199 -44.5
    endloop
  endfacet
  facet normal 0.707107 0 0.707107
    outer loop
      vertex 12.5 199 -49.5
      vertex 7.5 -199 -44.5
      vertex 12.5 -199 -49.5
    endloop
  endfacet
  facet normal -0 0 1
    outer loop
      vertex 12.5 199 -49.5
      vertex 86.5 -199 -49.5
      vertex 86.5 199 -49.5
    endloop
  endfacet
  facet normal 0 0 1
    outer loop
      vertex 86.5 -199 -49.5
      vertex 12.5 199 -49.5
      vertex 12.5 -199 -49.5
    endloop
  endfacet
endsolid OpenSCAD_Model
