solid OpenSCAD_Model
  facet normal 0 0 -1
    outer loop
      vertex 0 0 15.5
      vertex 2.5 30 15.5
      vertex 2.5 0 15.5
    endloop
  endfacet
  facet normal -0 0 -1
    outer loop
      vertex 2.5 30 15.5
      vertex 0 0 15.5
      vertex 0 30 15.5
    endloop
  endfacet
  facet normal 0 0 -1
    outer loop
      vertex 202.5 0 15.5
      vertex 205 30 15.5
      vertex 205 0 15.5
    endloop
  endfacet
  facet normal -0 0 -1
    outer loop
      vertex 205 30 15.5
      vertex 202.5 0 15.5
      vertex 202.5 30 15.5
    endloop
  endfacet
  facet normal 0 0 -1
    outer loop
      vertex 27.25 -2.5 26
      vertex 180.25 32.5 26
      vertex 180.25 -2.5 26
    endloop
  endfacet
  facet normal -0 0 -1
    outer loop
      vertex 180.25 32.5 26
      vertex 27.25 -2.5 26
      vertex 27.25 32.5 26
    endloop
  endfacet
  facet normal -0.992988 0 -0.118213
    outer loop
      vertex 180.875 -2.5 20.75
      vertex 180.25 32.5 26
      vertex 180.875 32.5 20.75
    endloop
  endfacet
  facet normal -0.992988 -0 -0.118213
    outer loop
      vertex 180.25 32.5 26
      vertex 180.875 -2.5 20.75
      vertex 180.25 -2.5 26
    endloop
  endfacet
  facet normal 0.992988 0 -0.118213
    outer loop
      vertex 27.25 -2.5 26
      vertex 26.625 32.5 20.75
      vertex 27.25 32.5 26
    endloop
  endfacet
  facet normal 0.992988 0 -0.118213
    outer loop
      vertex 26.625 32.5 20.75
      vertex 27.25 -2.5 26
      vertex 26.625 -2.5 20.75
    endloop
  endfacet
  facet normal 1 0 0
    outer loop
      vertex 205 32.5 28.5
      vertex 205 30 15.5
      vertex 205 32.5 -2.5
    endloop
  endfacet
  facet normal 1 0 0
    outer loop
      vertex 205 32.5 28.5
      vertex 205 0 15.5
      vertex 205 30 15.5
    endloop
  endfacet
  facet normal 1 0 0
    outer loop
      vertex 205 -2.5 -2.5
      vertex 205 0 15.5
      vertex 205 -2.5 28.5
    endloop
  endfacet
  facet normal 1 -0 0
    outer loop
      vertex 205 -2.5 28.5
      vertex 205 0 15.5
      vertex 205 32.5 28.5
    endloop
  endfacet
  facet normal 1 -0 0
    outer loop
      vertex 205 30 0
      vertex 205 32.5 -2.5
      vertex 205 30 15.5
    endloop
  endfacet
  facet normal 1 -0 0
    outer loop
      vertex 205 0 0
      vertex 205 32.5 -2.5
      vertex 205 30 0
    endloop
  endfacet
  facet normal 1 0 0
    outer loop
      vertex 205 0 0
      vertex 205 -2.5 -2.5
      vertex 205 32.5 -2.5
    endloop
  endfacet
  facet normal 1 0 0
    outer loop
      vertex 205 0 15.5
      vertex 205 -2.5 -2.5
      vertex 205 0 0
    endloop
  endfacet
  facet normal -0 0 1
    outer loop
      vertex 202.5 30 0
      vertex 205 0 0
      vertex 205 30 0
    endloop
  endfacet
  facet normal 0 0 1
    outer loop
      vertex 205 0 0
      vertex 202.5 30 0
      vertex 202.5 0 0
    endloop
  endfacet
  facet normal -0 0 1
    outer loop
      vertex 0 30 0
      vertex 2.5 0 0
      vertex 2.5 30 0
    endloop
  endfacet
  facet normal 0 0 1
    outer loop
      vertex 2.5 0 0
      vertex 0 30 0
      vertex 0 0 0
    endloop
  endfacet
  facet normal -1 0 0
    outer loop
      vertex 0 30 15.5
      vertex 0 32.5 -2.5
      vertex 0 30 0
    endloop
  endfacet
  facet normal -1 0 0
    outer loop
      vertex 0 32.5 -2.5
      vertex 0 0 0
      vertex 0 30 0
    endloop
  endfacet
  facet normal -1 -0 0
    outer loop
      vertex 0 0 0
      vertex 0 -2.5 -2.5
      vertex 0 0 15.5
    endloop
  endfacet
  facet normal -1 0 0
    outer loop
      vertex 0 -2.5 -2.5
      vertex 0 0 0
      vertex 0 32.5 -2.5
    endloop
  endfacet
  facet normal -1 0 0
    outer loop
      vertex 0 32.5 -2.5
      vertex 0 30 15.5
      vertex 0 32.5 28.5
    endloop
  endfacet
  facet normal -1 0 0
    outer loop
      vertex 0 0 15.5
      vertex 0 32.5 28.5
      vertex 0 30 15.5
    endloop
  endfacet
  facet normal -1 0 0
    outer loop
      vertex 0 0 15.5
      vertex 0 -2.5 28.5
      vertex 0 32.5 28.5
    endloop
  endfacet
  facet normal -1 0 0
    outer loop
      vertex 0 -2.5 28.5
      vertex 0 0 15.5
      vertex 0 -2.5 -2.5
    endloop
  endfacet
  facet normal 0 -1 0
    outer loop
      vertex 0 30 0
      vertex 2.5 30 15.5
      vertex 0 30 15.5
    endloop
  endfacet
  facet normal 0 -1 -0
    outer loop
      vertex 2.5 30 15.5
      vertex 0 30 0
      vertex 2.5 30 0
    endloop
  endfacet
  facet normal 0 -1 0
    outer loop
      vertex 202.5 30 0
      vertex 205 30 15.5
      vertex 202.5 30 15.5
    endloop
  endfacet
  facet normal 0 -1 -0
    outer loop
      vertex 205 30 15.5
      vertex 202.5 30 0
      vertex 205 30 0
    endloop
  endfacet
  facet normal 0 1 -0
    outer loop
      vertex 2.5 0 0
      vertex 0 0 15.5
      vertex 2.5 0 15.5
    endloop
  endfacet
  facet normal 0 1 0
    outer loop
      vertex 0 0 15.5
      vertex 2.5 0 0
      vertex 0 0 0
    endloop
  endfacet
  facet normal 0 1 -0
    outer loop
      vertex 205 0 0
      vertex 202.5 0 15.5
      vertex 205 0 15.5
    endloop
  endfacet
  facet normal 0 1 0
    outer loop
      vertex 202.5 0 15.5
      vertex 205 0 0
      vertex 202.5 0 0
    endloop
  endfacet
  facet normal -0 0 1
    outer loop
      vertex 0 32.5 28.5
      vertex 205 -2.5 28.5
      vertex 205 32.5 28.5
    endloop
  endfacet
  facet normal 0 0 1
    outer loop
      vertex 205 -2.5 28.5
      vertex 0 32.5 28.5
      vertex 0 -2.5 28.5
    endloop
  endfacet
  facet normal 0 0 -1
    outer loop
      vertex 202.5 -2.5 -2.5
      vertex 205 32.5 -2.5
      vertex 205 -2.5 -2.5
    endloop
  endfacet
  facet normal -0 0 -1
    outer loop
      vertex 205 32.5 -2.5
      vertex 202.5 -2.5 -2.5
      vertex 202.5 32.5 -2.5
    endloop
  endfacet
  facet normal 0 0 -1
    outer loop
      vertex 0 -2.5 -2.5
      vertex 2.5 32.5 -2.5
      vertex 2.5 -2.5 -2.5
    endloop
  endfacet
  facet normal -0 0 -1
    outer loop
      vertex 2.5 32.5 -2.5
      vertex 0 -2.5 -2.5
      vertex 0 32.5 -2.5
    endloop
  endfacet
  facet normal 0 1 0
    outer loop
      vertex 205 32.5 28.5
      vertex 180.25 32.5 26
      vertex 0 32.5 28.5
    endloop
  endfacet
  facet normal 0 1 0
    outer loop
      vertex 205 32.5 28.5
      vertex 202.5 32.5 20.75
      vertex 180.25 32.5 26
    endloop
  endfacet
  facet normal 0 1 -0
    outer loop
      vertex 205 32.5 -2.5
      vertex 202.5 32.5 20.75
      vertex 205 32.5 28.5
    endloop
  endfacet
  facet normal 0 1 0
    outer loop
      vertex 202.5 32.5 20.75
      vertex 205 32.5 -2.5
      vertex 202.5 32.5 -2.5
    endloop
  endfacet
  facet normal 0 1 -0
    outer loop
      vertex 27.25 32.5 26
      vertex 0 32.5 28.5
      vertex 180.25 32.5 26
    endloop
  endfacet
  facet normal 0 1 0
    outer loop
      vertex 2.5 32.5 20.75
      vertex 27.25 32.5 26
      vertex 26.625 32.5 20.75
    endloop
  endfacet
  facet normal 0 1 0
    outer loop
      vertex 27.25 32.5 26
      vertex 2.5 32.5 20.75
      vertex 0 32.5 28.5
    endloop
  endfacet
  facet normal 0 1 0
    outer loop
      vertex 0 32.5 -2.5
      vertex 2.5 32.5 20.75
      vertex 2.5 32.5 -2.5
    endloop
  endfacet
  facet normal 0 1 0
    outer loop
      vertex 2.5 32.5 20.75
      vertex 0 32.5 -2.5
      vertex 0 32.5 28.5
    endloop
  endfacet
  facet normal 0 1 0
    outer loop
      vertex 180.25 32.5 26
      vertex 202.5 32.5 20.75
      vertex 180.875 32.5 20.75
    endloop
  endfacet
  facet normal 0 -1 0
    outer loop
      vertex 0 -2.5 28.5
      vertex 27.25 -2.5 26
      vertex 205 -2.5 28.5
    endloop
  endfacet
  facet normal 0 -1 0
    outer loop
      vertex 0 -2.5 28.5
      vertex 2.5 -2.5 20.75
      vertex 27.25 -2.5 26
    endloop
  endfacet
  facet normal 0 -1 0
    outer loop
      vertex 0 -2.5 -2.5
      vertex 2.5 -2.5 20.75
      vertex 0 -2.5 28.5
    endloop
  endfacet
  facet normal 0 -1 -0
    outer loop
      vertex 2.5 -2.5 20.75
      vertex 0 -2.5 -2.5
      vertex 2.5 -2.5 -2.5
    endloop
  endfacet
  facet normal 0 -1 0
    outer loop
      vertex 180.25 -2.5 26
      vertex 205 -2.5 28.5
      vertex 27.25 -2.5 26
    endloop
  endfacet
  facet normal 0 -1 0
    outer loop
      vertex 202.5 -2.5 20.75
      vertex 180.25 -2.5 26
      vertex 180.875 -2.5 20.75
    endloop
  endfacet
  facet normal 0 -1 0
    outer loop
      vertex 180.25 -2.5 26
      vertex 202.5 -2.5 20.75
      vertex 205 -2.5 28.5
    endloop
  endfacet
  facet normal 0 -1 0
    outer loop
      vertex 205 -2.5 -2.5
      vertex 202.5 -2.5 20.75
      vertex 202.5 -2.5 -2.5
    endloop
  endfacet
  facet normal 0 -1 0
    outer loop
      vertex 202.5 -2.5 20.75
      vertex 205 -2.5 -2.5
      vertex 205 -2.5 28.5
    endloop
  endfacet
  facet normal 0 -1 0
    outer loop
      vertex 27.25 -2.5 26
      vertex 2.5 -2.5 20.75
      vertex 26.625 -2.5 20.75
    endloop
  endfacet
  facet normal -1 0 0
    outer loop
      vertex 202.5 30 15.5
      vertex 202.5 32.5 -2.5
      vertex 202.5 30 0
    endloop
  endfacet
  facet normal -1 0 0
    outer loop
      vertex 202.5 32.5 -2.5
      vertex 202.5 0 0
      vertex 202.5 30 0
    endloop
  endfacet
  facet normal -1 -0 0
    outer loop
      vertex 202.5 0 0
      vertex 202.5 -2.5 -2.5
      vertex 202.5 0 15.5
    endloop
  endfacet
  facet normal -1 0 0
    outer loop
      vertex 202.5 -2.5 -2.5
      vertex 202.5 0 0
      vertex 202.5 32.5 -2.5
    endloop
  endfacet
  facet normal -1 0 0
    outer loop
      vertex 202.5 32.5 -2.5
      vertex 202.5 30 15.5
      vertex 202.5 32.5 20.75
    endloop
  endfacet
  facet normal -1 0 0
    outer loop
      vertex 202.5 0 15.5
      vertex 202.5 32.5 20.75
      vertex 202.5 30 15.5
    endloop
  endfacet
  facet normal -1 0 0
    outer loop
      vertex 202.5 0 15.5
      vertex 202.5 -2.5 20.75
      vertex 202.5 32.5 20.75
    endloop
  endfacet
  facet normal -1 0 0
    outer loop
      vertex 202.5 -2.5 20.75
      vertex 202.5 0 15.5
      vertex 202.5 -2.5 -2.5
    endloop
  endfacet
  facet normal 0 0 -1
    outer loop
      vertex 180.875 -2.5 20.75
      vertex 202.5 32.5 20.75
      vertex 202.5 -2.5 20.75
    endloop
  endfacet
  facet normal -0 0 -1
    outer loop
      vertex 202.5 32.5 20.75
      vertex 180.875 -2.5 20.75
      vertex 180.875 32.5 20.75
    endloop
  endfacet
  facet normal 0 0 -1
    outer loop
      vertex 2.5 -2.5 20.75
      vertex 26.625 32.5 20.75
      vertex 26.625 -2.5 20.75
    endloop
  endfacet
  facet normal -0 0 -1
    outer loop
      vertex 26.625 32.5 20.75
      vertex 2.5 -2.5 20.75
      vertex 2.5 32.5 20.75
    endloop
  endfacet
  facet normal 1 0 0
    outer loop
      vertex 2.5 32.5 20.75
      vertex 2.5 30 15.5
      vertex 2.5 32.5 -2.5
    endloop
  endfacet
  facet normal 1 0 0
    outer loop
      vertex 2.5 32.5 20.75
      vertex 2.5 0 15.5
      vertex 2.5 30 15.5
    endloop
  endfacet
  facet normal 1 0 0
    outer loop
      vertex 2.5 -2.5 -2.5
      vertex 2.5 0 15.5
      vertex 2.5 -2.5 20.75
    endloop
  endfacet
  facet normal 1 -0 0
    outer loop
      vertex 2.5 -2.5 20.75
      vertex 2.5 0 15.5
      vertex 2.5 32.5 20.75
    endloop
  endfacet
  facet normal 1 -0 0
    outer loop
      vertex 2.5 30 0
      vertex 2.5 32.5 -2.5
      vertex 2.5 30 15.5
    endloop
  endfacet
  facet normal 1 -0 0
    outer loop
      vertex 2.5 0 0
      vertex 2.5 32.5 -2.5
      vertex 2.5 30 0
    endloop
  endfacet
  facet normal 1 0 0
    outer loop
      vertex 2.5 0 0
      vertex 2.5 -2.5 -2.5
      vertex 2.5 32.5 -2.5
    endloop
  endfacet
  facet normal 1 0 0
    outer loop
      vertex 2.5 0 15.5
      vertex 2.5 -2.5 -2.5
      vertex 2.5 0 0
    endloop
  endfacet
endsolid OpenSCAD_Model
