solid OpenSCAD_Model
  facet normal 0 0 -1
    outer loop
      vertex 0 0 15.5
      vertex 2 30 15.5
      vertex 2 0 15.5
    endloop
  endfacet
  facet normal -0 0 -1
    outer loop
      vertex 2 30 15.5
      vertex 0 0 15.5
      vertex 0 30 15.5
    endloop
  endfacet
  facet normal 0 0 -1
    outer loop
      vertex 203 0 15.5
      vertex 205 30 15.5
      vertex 205 0 15.5
    endloop
  endfacet
  facet normal -0 0 -1
    outer loop
      vertex 205 30 15.5
      vertex 203 0 15.5
      vertex 203 30 15.5
    endloop
  endfacet
  facet normal 0 0 -1
    outer loop
      vertex 27 -2 26
      vertex 180 32 26
      vertex 180 -2 26
    endloop
  endfacet
  facet normal -0 0 -1
    outer loop
      vertex 180 32 26
      vertex 27 -2 26
      vertex 27 32 26
    endloop
  endfacet
  facet normal -0.995495 0 -0.0948091
    outer loop
      vertex 180.5 -2 20.75
      vertex 180 32 26
      vertex 180.5 32 20.75
    endloop
  endfacet
  facet normal -0.995495 -0 -0.0948091
    outer loop
      vertex 180 32 26
      vertex 180.5 -2 20.75
      vertex 180 -2 26
    endloop
  endfacet
  facet normal 0.995495 0 -0.0948091
    outer loop
      vertex 27 -2 26
      vertex 26.5 32 20.75
      vertex 27 32 26
    endloop
  endfacet
  facet normal 0.995495 0 -0.0948091
    outer loop
      vertex 26.5 32 20.75
      vertex 27 -2 26
      vertex 26.5 -2 20.75
    endloop
  endfacet
  facet normal 1 0 0
    outer loop
      vertex 205 32 28
      vertex 205 30 15.5
      vertex 205 32 -2
    endloop
  endfacet
  facet normal 1 0 0
    outer loop
      vertex 205 32 28
      vertex 205 0 15.5
      vertex 205 30 15.5
    endloop
  endfacet
  facet normal 1 0 0
    outer loop
      vertex 205 -2 -2
      vertex 205 0 15.5
      vertex 205 -2 28
    endloop
  endfacet
  facet normal 1 -0 0
    outer loop
      vertex 205 -2 28
      vertex 205 0 15.5
      vertex 205 32 28
    endloop
  endfacet
  facet normal 1 -0 0
    outer loop
      vertex 205 30 0
      vertex 205 32 -2
      vertex 205 30 15.5
    endloop
  endfacet
  facet normal 1 -0 0
    outer loop
      vertex 205 0 0
      vertex 205 32 -2
      vertex 205 30 0
    endloop
  endfacet
  facet normal 1 0 0
    outer loop
      vertex 205 0 0
      vertex 205 -2 -2
      vertex 205 32 -2
    endloop
  endfacet
  facet normal 1 0 0
    outer loop
      vertex 205 0 15.5
      vertex 205 -2 -2
      vertex 205 0 0
    endloop
  endfacet
  facet normal -0 0 1
    outer loop
      vertex 203 30 0
      vertex 205 0 0
      vertex 205 30 0
    endloop
  endfacet
  facet normal 0 0 1
    outer loop
      vertex 205 0 0
      vertex 203 30 0
      vertex 203 0 0
    endloop
  endfacet
  facet normal -0 0 1
    outer loop
      vertex 0 30 0
      vertex 2 0 0
      vertex 2 30 0
    endloop
  endfacet
  facet normal 0 0 1
    outer loop
      vertex 2 0 0
      vertex 0 30 0
      vertex 0 0 0
    endloop
  endfacet
  facet normal -1 0 0
    outer loop
      vertex 0 30 15.5
      vertex 0 32 -2
      vertex 0 30 0
    endloop
  endfacet
  facet normal -1 0 0
    outer loop
      vertex 0 32 -2
      vertex 0 0 0
      vertex 0 30 0
    endloop
  endfacet
  facet normal -1 -0 0
    outer loop
      vertex 0 0 0
      vertex 0 -2 -2
      vertex 0 0 15.5
    endloop
  endfacet
  facet normal -1 0 0
    outer loop
      vertex 0 -2 -2
      vertex 0 0 0
      vertex 0 32 -2
    endloop
  endfacet
  facet normal -1 0 0
    outer loop
      vertex 0 32 -2
      vertex 0 30 15.5
      vertex 0 32 28
    endloop
  endfacet
  facet normal -1 0 0
    outer loop
      vertex 0 0 15.5
      vertex 0 32 28
      vertex 0 30 15.5
    endloop
  endfacet
  facet normal -1 0 0
    outer loop
      vertex 0 0 15.5
      vertex 0 -2 28
      vertex 0 32 28
    endloop
  endfacet
  facet normal -1 0 0
    outer loop
      vertex 0 -2 28
      vertex 0 0 15.5
      vertex 0 -2 -2
    endloop
  endfacet
  facet normal 0 -1 0
    outer loop
      vertex 0 30 0
      vertex 2 30 15.5
      vertex 0 30 15.5
    endloop
  endfacet
  facet normal 0 -1 -0
    outer loop
      vertex 2 30 15.5
      vertex 0 30 0
      vertex 2 30 0
    endloop
  endfacet
  facet normal 0 -1 0
    outer loop
      vertex 203 30 0
      vertex 205 30 15.5
      vertex 203 30 15.5
    endloop
  endfacet
  facet normal 0 -1 -0
    outer loop
      vertex 205 30 15.5
      vertex 203 30 0
      vertex 205 30 0
    endloop
  endfacet
  facet normal 0 1 -0
    outer loop
      vertex 2 0 0
      vertex 0 0 15.5
      vertex 2 0 15.5
    endloop
  endfacet
  facet normal 0 1 0
    outer loop
      vertex 0 0 15.5
      vertex 2 0 0
      vertex 0 0 0
    endloop
  endfacet
  facet normal 0 1 -0
    outer loop
      vertex 205 0 0
      vertex 203 0 15.5
      vertex 205 0 15.5
    endloop
  endfacet
  facet normal 0 1 0
    outer loop
      vertex 203 0 15.5
      vertex 205 0 0
      vertex 203 0 0
    endloop
  endfacet
  facet normal -0 0 1
    outer loop
      vertex 0 32 28
      vertex 205 -2 28
      vertex 205 32 28
    endloop
  endfacet
  facet normal 0 0 1
    outer loop
      vertex 205 -2 28
      vertex 0 32 28
      vertex 0 -2 28
    endloop
  endfacet
  facet normal 0 0 -1
    outer loop
      vertex 203 -2 -2
      vertex 205 32 -2
      vertex 205 -2 -2
    endloop
  endfacet
  facet normal -0 0 -1
    outer loop
      vertex 205 32 -2
      vertex 203 -2 -2
      vertex 203 32 -2
    endloop
  endfacet
  facet normal 0 0 -1
    outer loop
      vertex 0 -2 -2
      vertex 2 32 -2
      vertex 2 -2 -2
    endloop
  endfacet
  facet normal -0 0 -1
    outer loop
      vertex 2 32 -2
      vertex 0 -2 -2
      vertex 0 32 -2
    endloop
  endfacet
  facet normal 0 1 0
    outer loop
      vertex 205 32 28
      vertex 180 32 26
      vertex 0 32 28
    endloop
  endfacet
  facet normal 0 1 0
    outer loop
      vertex 205 32 28
      vertex 203 32 20.75
      vertex 180 32 26
    endloop
  endfacet
  facet normal 0 1 -0
    outer loop
      vertex 205 32 -2
      vertex 203 32 20.75
      vertex 205 32 28
    endloop
  endfacet
  facet normal 0 1 0
    outer loop
      vertex 203 32 20.75
      vertex 205 32 -2
      vertex 203 32 -2
    endloop
  endfacet
  facet normal 0 1 -0
    outer loop
      vertex 27 32 26
      vertex 0 32 28
      vertex 180 32 26
    endloop
  endfacet
  facet normal 0 1 0
    outer loop
      vertex 2 32 20.75
      vertex 27 32 26
      vertex 26.5 32 20.75
    endloop
  endfacet
  facet normal 0 1 0
    outer loop
      vertex 27 32 26
      vertex 2 32 20.75
      vertex 0 32 28
    endloop
  endfacet
  facet normal 0 1 0
    outer loop
      vertex 0 32 -2
      vertex 2 32 20.75
      vertex 2 32 -2
    endloop
  endfacet
  facet normal 0 1 0
    outer loop
      vertex 2 32 20.75
      vertex 0 32 -2
      vertex 0 32 28
    endloop
  endfacet
  facet normal 0 1 0
    outer loop
      vertex 180 32 26
      vertex 203 32 20.75
      vertex 180.5 32 20.75
    endloop
  endfacet
  facet normal 0 -1 0
    outer loop
      vertex 0 -2 28
      vertex 27 -2 26
      vertex 205 -2 28
    endloop
  endfacet
  facet normal 0 -1 0
    outer loop
      vertex 0 -2 28
      vertex 2 -2 20.75
      vertex 27 -2 26
    endloop
  endfacet
  facet normal 0 -1 0
    outer loop
      vertex 0 -2 -2
      vertex 2 -2 20.75
      vertex 0 -2 28
    endloop
  endfacet
  facet normal 0 -1 -0
    outer loop
      vertex 2 -2 20.75
      vertex 0 -2 -2
      vertex 2 -2 -2
    endloop
  endfacet
  facet normal 0 -1 0
    outer loop
      vertex 180 -2 26
      vertex 205 -2 28
      vertex 27 -2 26
    endloop
  endfacet
  facet normal 0 -1 0
    outer loop
      vertex 203 -2 20.75
      vertex 180 -2 26
      vertex 180.5 -2 20.75
    endloop
  endfacet
  facet normal 0 -1 0
    outer loop
      vertex 180 -2 26
      vertex 203 -2 20.75
      vertex 205 -2 28
    endloop
  endfacet
  facet normal 0 -1 0
    outer loop
      vertex 205 -2 -2
      vertex 203 -2 20.75
      vertex 203 -2 -2
    endloop
  endfacet
  facet normal 0 -1 0
    outer loop
      vertex 203 -2 20.75
      vertex 205 -2 -2
      vertex 205 -2 28
    endloop
  endfacet
  facet normal 0 -1 0
    outer loop
      vertex 27 -2 26
      vertex 2 -2 20.75
      vertex 26.5 -2 20.75
    endloop
  endfacet
  facet normal -1 0 0
    outer loop
      vertex 203 30 15.5
      vertex 203 32 -2
      vertex 203 30 0
    endloop
  endfacet
  facet normal -1 0 0
    outer loop
      vertex 203 32 -2
      vertex 203 0 0
      vertex 203 30 0
    endloop
  endfacet
  facet normal -1 -0 0
    outer loop
      vertex 203 0 0
      vertex 203 -2 -2
      vertex 203 0 15.5
    endloop
  endfacet
  facet normal -1 0 0
    outer loop
      vertex 203 -2 -2
      vertex 203 0 0
      vertex 203 32 -2
    endloop
  endfacet
  facet normal -1 0 0
    outer loop
      vertex 203 32 -2
      vertex 203 30 15.5
      vertex 203 32 20.75
    endloop
  endfacet
  facet normal -1 0 0
    outer loop
      vertex 203 0 15.5
      vertex 203 32 20.75
      vertex 203 30 15.5
    endloop
  endfacet
  facet normal -1 0 0
    outer loop
      vertex 203 0 15.5
      vertex 203 -2 20.75
      vertex 203 32 20.75
    endloop
  endfacet
  facet normal -1 0 0
    outer loop
      vertex 203 -2 20.75
      vertex 203 0 15.5
      vertex 203 -2 -2
    endloop
  endfacet
  facet normal 0 0 -1
    outer loop
      vertex 180.5 -2 20.75
      vertex 203 32 20.75
      vertex 203 -2 20.75
    endloop
  endfacet
  facet normal -0 0 -1
    outer loop
      vertex 203 32 20.75
      vertex 180.5 -2 20.75
      vertex 180.5 32 20.75
    endloop
  endfacet
  facet normal 0 0 -1
    outer loop
      vertex 2 -2 20.75
      vertex 26.5 32 20.75
      vertex 26.5 -2 20.75
    endloop
  endfacet
  facet normal -0 0 -1
    outer loop
      vertex 26.5 32 20.75
      vertex 2 -2 20.75
      vertex 2 32 20.75
    endloop
  endfacet
  facet normal 1 0 0
    outer loop
      vertex 2 32 20.75
      vertex 2 30 15.5
      vertex 2 32 -2
    endloop
  endfacet
  facet normal 1 0 0
    outer loop
      vertex 2 32 20.75
      vertex 2 0 15.5
      vertex 2 30 15.5
    endloop
  endfacet
  facet normal 1 0 0
    outer loop
      vertex 2 -2 -2
      vertex 2 0 15.5
      vertex 2 -2 20.75
    endloop
  endfacet
  facet normal 1 -0 0
    outer loop
      vertex 2 -2 20.75
      vertex 2 0 15.5
      vertex 2 32 20.75
    endloop
  endfacet
  facet normal 1 -0 0
    outer loop
      vertex 2 30 0
      vertex 2 32 -2
      vertex 2 30 15.5
    endloop
  endfacet
  facet normal 1 -0 0
    outer loop
      vertex 2 0 0
      vertex 2 32 -2
      vertex 2 30 0
    endloop
  endfacet
  facet normal 1 0 0
    outer loop
      vertex 2 0 0
      vertex 2 -2 -2
      vertex 2 32 -2
    endloop
  endfacet
  facet normal 1 0 0
    outer loop
      vertex 2 0 15.5
      vertex 2 -2 -2
      vertex 2 0 0
    endloop
  endfacet
endsolid OpenSCAD_Model
