solid OpenSCAD_Model
  facet normal 1 0 0
    outer loop
      vertex 7.5 20 1
      vertex 7.5 3.5 -1
      vertex 7.5 20 -1
    endloop
  endfacet
  facet normal 1 0 0
    outer loop
      vertex 7.5 3.5 -1
      vertex 7.5 1.5 -1
      vertex 7.5 3.5 -10
    endloop
  endfacet
  facet normal 1 0 0
    outer loop
      vertex 7.5 20 1
      vertex 7.5 1.5 -1
      vertex 7.5 3.5 -1
    endloop
  endfacet
  facet normal 1 0 0
    outer loop
      vertex 7.5 20 1
      vertex 7.5 -1.5 -1
      vertex 7.5 1.5 -1
    endloop
  endfacet
  facet normal 1 0 0
    outer loop
      vertex 7.5 -1.5 -1
      vertex 7.5 -3.5 -1
      vertex 7.5 -1.5 -10
    endloop
  endfacet
  facet normal 1 -0 0
    outer loop
      vertex 7.5 -20 1
      vertex 7.5 -1.5 -1
      vertex 7.5 20 1
    endloop
  endfacet
  facet normal 1 0 0
    outer loop
      vertex 7.5 -1.5 -1
      vertex 7.5 -20 1
      vertex 7.5 -3.5 -1
    endloop
  endfacet
  facet normal 1 0 0
    outer loop
      vertex 7.5 -3.5 -1
      vertex 7.5 -20 1
      vertex 7.5 -20 -1
    endloop
  endfacet
  facet normal 1 0 0
    outer loop
      vertex 7.5 3.5 -10
      vertex 7.5 1.5 -1
      vertex 7.5 1.5 -10
    endloop
  endfacet
  facet normal 1 0 0
    outer loop
      vertex 7.5 -1.5 -10
      vertex 7.5 -3.5 -1
      vertex 7.5 -3.5 -10
    endloop
  endfacet
  facet normal -0 0 1
    outer loop
      vertex -7.5 20 1
      vertex 7.5 -20 1
      vertex 7.5 20 1
    endloop
  endfacet
  facet normal 0 0 1
    outer loop
      vertex 7.5 -20 1
      vertex -7.5 20 1
      vertex -7.5 -20 1
    endloop
  endfacet
  facet normal 0 0 -1
    outer loop
      vertex -7.5 3.5 -1
      vertex 7.5 20 -1
      vertex 7.5 3.5 -1
    endloop
  endfacet
  facet normal -0 0 -1
    outer loop
      vertex 7.5 20 -1
      vertex -7.5 3.5 -1
      vertex -7.5 20 -1
    endloop
  endfacet
  facet normal 0 0 -1
    outer loop
      vertex -7.5 -20 -1
      vertex 7.5 -3.5 -1
      vertex 7.5 -20 -1
    endloop
  endfacet
  facet normal -0 0 -1
    outer loop
      vertex 7.5 -3.5 -1
      vertex -7.5 -20 -1
      vertex -7.5 -3.5 -1
    endloop
  endfacet
  facet normal 0 0 -1
    outer loop
      vertex -7.5 -1.5 -1
      vertex 7.5 1.5 -1
      vertex 7.5 -1.5 -1
    endloop
  endfacet
  facet normal -0 0 -1
    outer loop
      vertex 7.5 1.5 -1
      vertex -7.5 -1.5 -1
      vertex -7.5 1.5 -1
    endloop
  endfacet
  facet normal -1 0 0
    outer loop
      vertex -7.5 -1.5 -10
      vertex -7.5 -3.5 -10
      vertex -7.5 -1.5 -1
    endloop
  endfacet
  facet normal -1 0 0
    outer loop
      vertex -7.5 3.5 -10
      vertex -7.5 1.5 -10
      vertex -7.5 3.5 -1
    endloop
  endfacet
  facet normal -1 0 0
    outer loop
      vertex -7.5 3.5 -1
      vertex -7.5 20 1
      vertex -7.5 20 -1
    endloop
  endfacet
  facet normal -1 0 0
    outer loop
      vertex -7.5 1.5 -1
      vertex -7.5 3.5 -1
      vertex -7.5 1.5 -10
    endloop
  endfacet
  facet normal -1 0 0
    outer loop
      vertex -7.5 1.5 -1
      vertex -7.5 20 1
      vertex -7.5 3.5 -1
    endloop
  endfacet
  facet normal -1 0 0
    outer loop
      vertex -7.5 -1.5 -1
      vertex -7.5 20 1
      vertex -7.5 1.5 -1
    endloop
  endfacet
  facet normal -1 0 0
    outer loop
      vertex -7.5 -3.5 -1
      vertex -7.5 -1.5 -1
      vertex -7.5 -3.5 -10
    endloop
  endfacet
  facet normal -1 0 0
    outer loop
      vertex -7.5 -20 1
      vertex -7.5 -1.5 -1
      vertex -7.5 -3.5 -1
    endloop
  endfacet
  facet normal -1 0 0
    outer loop
      vertex -7.5 -20 1
      vertex -7.5 -3.5 -1
      vertex -7.5 -20 -1
    endloop
  endfacet
  facet normal -1 0 0
    outer loop
      vertex -7.5 -1.5 -1
      vertex -7.5 -20 1
      vertex -7.5 20 1
    endloop
  endfacet
  facet normal 0 1 -0
    outer loop
      vertex 7.5 20 -1
      vertex -7.5 20 1
      vertex 7.5 20 1
    endloop
  endfacet
  facet normal 0 1 0
    outer loop
      vertex -7.5 20 1
      vertex 7.5 20 -1
      vertex -7.5 20 -1
    endloop
  endfacet
  facet normal 0 -1 0
    outer loop
      vertex -7.5 -20 -1
      vertex 7.5 -20 1
      vertex -7.5 -20 1
    endloop
  endfacet
  facet normal 0 -1 -0
    outer loop
      vertex 7.5 -20 1
      vertex -7.5 -20 -1
      vertex 7.5 -20 -1
    endloop
  endfacet
  facet normal 0 0 -1
    outer loop
      vertex -7.5 1.5 -10
      vertex 7.5 3.5 -10
      vertex 7.5 1.5 -10
    endloop
  endfacet
  facet normal -0 0 -1
    outer loop
      vertex 7.5 3.5 -10
      vertex -7.5 1.5 -10
      vertex -7.5 3.5 -10
    endloop
  endfacet
  facet normal 0 1 -0
    outer loop
      vertex 7.5 3.5 -10
      vertex -7.5 3.5 -1
      vertex 7.5 3.5 -1
    endloop
  endfacet
  facet normal 0 1 0
    outer loop
      vertex -7.5 3.5 -1
      vertex 7.5 3.5 -10
      vertex -7.5 3.5 -10
    endloop
  endfacet
  facet normal 0 -1 0
    outer loop
      vertex -7.5 1.5 -10
      vertex 7.5 1.5 -1
      vertex -7.5 1.5 -1
    endloop
  endfacet
  facet normal 0 -1 -0
    outer loop
      vertex 7.5 1.5 -1
      vertex -7.5 1.5 -10
      vertex 7.5 1.5 -10
    endloop
  endfacet
  facet normal 0 0 -1
    outer loop
      vertex -7.5 -3.5 -10
      vertex 7.5 -1.5 -10
      vertex 7.5 -3.5 -10
    endloop
  endfacet
  facet normal -0 0 -1
    outer loop
      vertex 7.5 -1.5 -10
      vertex -7.5 -3.5 -10
      vertex -7.5 -1.5 -10
    endloop
  endfacet
  facet normal 0 1 -0
    outer loop
      vertex 7.5 -1.5 -10
      vertex -7.5 -1.5 -1
      vertex 7.5 -1.5 -1
    endloop
  endfacet
  facet normal 0 1 0
    outer loop
      vertex -7.5 -1.5 -1
      vertex 7.5 -1.5 -10
      vertex -7.5 -1.5 -10
    endloop
  endfacet
  facet normal 0 -1 0
    outer loop
      vertex -7.5 -3.5 -10
      vertex 7.5 -3.5 -1
      vertex -7.5 -3.5 -1
    endloop
  endfacet
  facet normal 0 -1 -0
    outer loop
      vertex 7.5 -3.5 -1
      vertex -7.5 -3.5 -10
      vertex 7.5 -3.5 -10
    endloop
  endfacet
endsolid OpenSCAD_Model
